<?xml version="1.0" encoding="utf-8"?>
<svg xmlns="http://www.w3.org/2000/svg" xmlns:xlink="http://www.w3.org/1999/xlink" version= "1.1" width="2160px" height="2160px" viewBox="-540 66 2160 2160">
<g id="layer1">
<g style="fill:rgb(255,255,255); fill-opacity:1.0; stroke-linejoin: miter">
<path d="M-297.2714,634.5809L-297.2714,634.58185L-297.2714,634.5828L-297.2714,634.5838C-304.19995,635.3512,-311.1285,636.1215,-318.0571,636.8919L-319.63177,1709.2062L536.9491,2157.371L538.014,1077.1978C515.8034,1036.0227,488.22903,1044.0625,455.6253,1010.5646C390.30872,943.4566,310.156,886.75745,214.69867,842.38965C70.26851,775.2597,-87.4208,719.04553,-257.11447,671.02496L-297.26843,634.5809L-297.2714,634.58185L-297.2714,634.5809L-297.2714,634.58185 Z"/>
</g>
</g>
<g id="layer2">
<g style="fill:rgb(250,240,239); fill-opacity:1.0; stroke-linejoin: miter">
<path d="M1363.544,633.86554L1363.544,633.8665L1363.544,633.8675L1363.544,633.86847L1363.544,633.86945L1363.544,633.8704L1363.544,633.8714C1370.4724,634.63586,1377.401,635.4062,1384.3296,636.1766L1385.9042,1708.4907L536.4765,2156.877L535.8657,1077.5902C558.07635,1036.4152,578.04364,1043.3472,610.64734,1009.8493C675.9639,942.7414,756.1166,886.0422,851.57385,841.6744C996.004,774.54443,1153.6934,718.3302,1323.387,670.30963L1363.5409,633.86554L1363.544,633.8665L1363.544,633.86554L1363.544,633.8665L1363.544,633.86554L1363.544,633.8665L1363.544,633.86554 Z"/>
</g>
</g>
<g id="layer3">
<g style="fill:rgb(58,182,254); fill-opacity:1.0; stroke-linejoin: miter">
<path d="M225.20984,1235.2075L225.20984,1235.2085L225.20984,1235.2095L225.20984,1235.2104L225.20984,1235.2114C167.03484,1235.2074,108.98307,1244.0402,51.20996,1262.2021C-105.05368,1311.3264,-228.60431,1396.0792,-319.59845,1515.9642L-319.34882,1516.5199L-319.63177,1709.2062L536.48267,2156.8938C536.619,2152.642,536.76715,2148.299,536.91425,2143.9114L536.4765,2156.877L536.1554,1283.5922C496.16083,1275.9768,436.7911,1261.8748,363.38443,1247.4934C316.0346,1238.2169,276.54672,1236.088,245.83243,1235.5842C238.95212,1235.4714,232.08157,1235.2074,225.20984,1235.2075L225.20984,1235.2085L225.20984,1235.2075L225.20984,1235.2085L225.20984,1235.2075 Z"/>
</g>
<g style="fill:rgb(24,172,249); fill-opacity:1.0; stroke-linejoin: miter">
<path d="M1384.8055,969.7079L1384.8055,969.70886L1384.8055,969.70984L1384.8055,969.7108L1384.8055,969.7118L1384.8055,969.71277L1384.8055,969.71375C1309.2375,982.85583,1254.1407,999.4788,1219.061,1018.75793C1197.5714,1030.5682,1174.442,1044.3838,1151.8284,1063.1538C1040.3826,1155.6575,978.64874,1202.4865,968.0934,1208.6768C910.8722,1242.2349,859.00665,1266.612,808.938,1277.5798C760.98755,1288.0836,710.48676,1294.5328,656.89014,1294.5328C639.86176,1294.5328,622.558,1293.8268,604.9227,1293.0251C600.4287,1292.8208,596.9193,1292.9059,594.9085,1292.9059C585.84033,1292.9059,570.86694,1290.2382,535.86365,1283.6018L536.4743,2156.8752L1385.9042,1708.4907L1384.8193,969.7079L1384.8055,969.70886L1384.8055,969.7079L1384.8055,969.70886L1384.8055,969.7079L1384.8055,969.70886L1384.8055,969.7079 Z"/>
</g>
</g>
<g id="layer4">
<g style="fill:rgb(0,159,247); fill-opacity:1.0; stroke-linejoin: miter">
<path d="M226.60883,1372.5437C168.40262,1372.5476,110.364174,1381.3805,52.604233,1399.5383C-103.65936,1448.6626,-227.20998,1533.4154,-318.20407,1653.3004L-319.5547,1656.7068L-319.63177,1709.2062L536.9491,2157.371L536.94714,2156.6284L537.3159,2156.4338L536.2806,1899.2861L536.94714,2156.6284L536.2805,1899.2706L534.3524,1420.3634C534.07434,1420.3104,533.79553,1420.2572,533.5159,1420.2037L533.5106,1420.2047L533.5106,1420.2037C493.57605,1412.5598,437.67496,1399.111,364.77863,1384.8296C317.4288,1375.5531,277.94092,1373.4242,247.22668,1372.9204C240.34796,1372.8076,233.479,1372.5437,226.60883,1372.5437 Z"/>
</g>
<g style="fill:rgb(0,159,247); fill-opacity:1.0; stroke-linejoin: miter">
<path d="M1385.0074,1107.256L1385.0074,1107.257L1385.0074,1107.2579L1385.0074,1107.2589L1385.0074,1107.2599C1310.0518,1120.3673,1255.35,1136.9167,1220.455,1156.0942C1198.9653,1167.9045,1175.8359,1181.72,1153.2223,1200.49C1041.7765,1292.9937,980.04285,1339.8226,969.48755,1346.013C912.2663,1379.571,860.40076,1403.9482,810.3321,1414.916C762.38165,1425.4198,711.88086,1431.869,658.28424,1431.869C641.25586,1431.869,623.9334,1431.2986,606.31683,1430.1577C605.58124,1430.4839,604.208,1430.6472,602.1972,1430.6472C593.1295,1430.6472,569.2251,1426.997,534.2249,1420.3612L532.8195,1424.1666L532.10156,1433.4484L536.58777,2157.7202L1385.9042,1708.4907L1385.0214,1107.256L1385.0074,1107.257L1385.0074,1107.256L1385.0074,1107.257L1385.0074,1107.256 Z"/>
</g>
</g>
<g id="layer5">
<g style="fill:rgb(255,189,92); fill-opacity:0.98039216; stroke-linejoin: miter">
<path d="M-318.26822,637.0515L108.86398,895.3255L535.9962,1153.5996L1385.0438,636.70166Q959.2262,378.3745,533.4081,120.04736L-318.26822,637.0515"/>
</g>
</g>
<g id="layer6">
<g style="fill:rgb(255,189,92); fill-opacity:0.98039216; stroke-linejoin: miter">
<path d="M-318.26822,637.0515L108.86398,895.3255L535.9962,1153.5996L1385.0438,636.70166Q959.2262,378.3745,533.4081,120.04736L-318.26822,637.0515"/>
</g>
</g>
</svg>